<svg xmlns="http://www.w3.org/2000/svg" width="20.844" height="20.5" viewBox="0 0 20.844 20.5">
  <g id="Group_113" data-name="Group 113" transform="translate(0.75 0.75)">
    <path id="Path_79" data-name="Path 79" d="M11.8,21H5a2,2,0,0,1-2-2V7A2,2,0,0,1,5,5H17a2,2,0,0,1,2,2v4" transform="translate(-3 -3)" fill="none" stroke="#0a73fe" stroke-linecap="round" stroke-linejoin="round" stroke-width="1.5"/>
    <circle id="Ellipse_26" data-name="Ellipse 26" cx="4" cy="4" r="4" transform="translate(11.344 11)" fill="none" stroke="#0a73fe" stroke-linecap="round" stroke-linejoin="round" stroke-width="1.5"/>
    <path id="Path_80" data-name="Path 80" d="M15,3V7" transform="translate(-3 -3)" fill="none" stroke="#0a73fe" stroke-linecap="round" stroke-linejoin="round" stroke-width="1.5"/>
    <path id="Path_81" data-name="Path 81" d="M7,3V7" transform="translate(-3 -3)" fill="none" stroke="#0a73fe" stroke-linecap="round" stroke-linejoin="round" stroke-width="1.5"/>
    <path id="Path_82" data-name="Path 82" d="M3,11H19" transform="translate(-3 -3)" fill="none" stroke="#0a73fe" stroke-linecap="round" stroke-linejoin="round" stroke-width="1.5"/>
    <path id="Path_83" data-name="Path 83" d="M18,16.5V18l1,1" transform="translate(-3 -3)" fill="none" stroke="#0a73fe" stroke-linecap="round" stroke-linejoin="round" stroke-width="1.5"/>
  </g>
</svg>
