<svg xmlns="http://www.w3.org/2000/svg" width="500.58" height="406" viewBox="0 0 500.58 406">
  <g id="undraw_business_deal_re_up4u" transform="translate(0 0)">
    <path id="Path_227" data-name="Path 227" d="M785.259,249.11c-2.6,28.651-10.009,58.862-21.627,88.012-14.368,36.048-34,67.8-56.768,91.819l-1.264-1.1c22.66-23.905,42.2-55.516,56.509-91.414,12.931-32.441,20.622-66.2,22.252-97.614l1.615.27Q785.719,244.059,785.259,249.11Z" transform="translate(-385.634 -175.156)" fill="#f2f2f2"/>
    <path id="Path_228" data-name="Path 228" d="M785.294,506.149c-31.983,50.882-70.785,87.238-109.258,102.369l-.778-1.427c38.208-15.027,76.782-51.2,108.619-101.846Z" transform="translate(-375.311 -265.793)" fill="#f2f2f2"/>
    <path id="Path_229" data-name="Path 229" d="M784.083,303.174c-2.6,28.651-10.009,58.862-21.627,88.012-14.368,36.047-34,67.8-56.768,91.819l-1.264-1.1c22.66-23.905,42.2-55.516,56.509-91.414,12.931-32.441,20.622-66.2,22.252-97.614l1.615.27Q784.543,298.122,784.083,303.174Z" transform="translate(-385.234 -193.548)" fill="#f2f2f2"/>
    <path id="Path_230" data-name="Path 230" d="M268.443,399.793H247.458a2.969,2.969,0,0,1-2.332-1.123,2.908,2.908,0,0,1-.569-2.471,57.067,57.067,0,0,0-.366-26.746,2.975,2.975,0,0,1,1.154-3.126c10.79-7.76,19.288-7.535,25.257.67a2.982,2.982,0,0,1,.522,1.26,93.389,93.389,0,0,1,.262,28.982A2.963,2.963,0,0,1,268.443,399.793Z" transform="translate(-228.639 -216.611)" fill="#e6e6e6"/>
    <path id="Path_231" data-name="Path 231" d="M266.633,386.564h-7.219a1.505,1.505,0,0,1,0-3.01h7.219a1.505,1.505,0,1,1,0,3.01Z" transform="translate(-233.335 -224.396)" fill="#fff"/>
    <path id="Path_232" data-name="Path 232" d="M266.633,394.564h-7.219a1.505,1.505,0,1,1,0-3.01h7.219a1.505,1.505,0,1,1,0,3.01Z" transform="translate(-233.335 -227.117)" fill="#fff"/>
    <path id="Path_233" data-name="Path 233" d="M266.633,402.564h-7.219a1.505,1.505,0,1,1,0-3.01h7.219a1.505,1.505,0,0,1,0,3.01Z" transform="translate(-233.335 -229.839)" fill="#fff"/>
    <path id="Path_234" data-name="Path 234" d="M846.443,541.793H825.458a2.969,2.969,0,0,1-2.332-1.123,2.908,2.908,0,0,1-.569-2.471,57.067,57.067,0,0,0-.366-26.746,2.975,2.975,0,0,1,1.154-3.126c10.79-7.76,19.288-7.535,25.257.67a2.982,2.982,0,0,1,.522,1.26,93.389,93.389,0,0,1,.262,28.982A2.963,2.963,0,0,1,846.443,541.793Z" transform="translate(-425.267 -264.917)" fill="#e6e6e6"/>
    <path id="Path_235" data-name="Path 235" d="M844.633,528.564h-7.219a1.505,1.505,0,0,1,0-3.01h7.219a1.505,1.505,0,1,1,0,3.01Z" transform="translate(-429.963 -272.702)" fill="#fff"/>
    <path id="Path_236" data-name="Path 236" d="M844.633,536.564h-7.219a1.505,1.505,0,0,1,0-3.01h7.219a1.505,1.505,0,1,1,0,3.01Z" transform="translate(-429.963 -275.424)" fill="#fff"/>
    <path id="Path_237" data-name="Path 237" d="M844.633,544.564h-7.219a1.505,1.505,0,0,1,0-3.01h7.219a1.505,1.505,0,1,1,0,3.01Z" transform="translate(-429.963 -278.145)" fill="#fff"/>
    <path id="Path_238" data-name="Path 238" d="M721.245,756.068a.783.783,0,0,1-.785.785H221.45a.785.785,0,1,1,0-1.57H720.46a.783.783,0,0,1,.785.785Z" transform="translate(-220.665 -350.853)" fill="#ccc"/>
    <path id="Path_239" data-name="Path 239" d="M405.24,671.024l-1.308-18.2a58.884,58.884,0,0,0-27.645-6.2c13.481,10.42,12.4,31.247,21.738,45.5a35.419,35.419,0,0,0,26.411,15.652l11.22,6.455a59.352,59.352,0,0,0-13.819-47.735,57.331,57.331,0,0,0-10.8-9.5C408.583,664.036,405.24,671.024,405.24,671.024Z" transform="translate(-273.605 -313.883)" fill="#f2f2f2"/>
    <path id="Path_240" data-name="Path 240" d="M763.806,675.024l1.309-18.2a58.885,58.885,0,0,1,27.646-6.2c-13.481,10.42-12.4,31.247-21.738,45.5a35.419,35.419,0,0,1-26.411,15.652l-11.219,6.454a59.351,59.351,0,0,1,13.819-47.735,57.332,57.332,0,0,1,10.8-9.5C760.464,668.036,763.806,675.024,763.806,675.024Z" transform="translate(-394.861 -315.244)" fill="#f2f2f2"/>
    <circle id="Ellipse_7" data-name="Ellipse 7" cx="12.536" cy="12.536" r="12.536" transform="translate(231.815 129.285)" fill="#0a73fe"/>
    <path id="Path_241" data-name="Path 241" d="M594.636,349.216a1.014,1.014,0,0,0-1.4,0,41.525,41.525,0,0,0-7.114,7.266l-1.521-2.942c-.585-1.132-2.294-.132-1.709,1l2.224,4.3a1,1,0,0,0,1.709,0,40.082,40.082,0,0,1,7.81-8.227A1,1,0,0,0,594.636,349.216Z" transform="translate(-343.849 -212.619)" fill="#fff"/>
    <path id="Path_242" data-name="Path 242" d="M496.238,389.8l-18.9-29.688,21.891-11.724,5.746,22.651,40.483,21.876a8.753,8.753,0,1,1-4.982,11.909Z" transform="translate(-307.98 -212.434)" fill="#a0616a"/>
    <path id="Path_243" data-name="Path 243" d="M455.857,308.09c-5.94,8.721,15.169,40.422,15.169,40.422,1.028-2.217,10.859,22.675,12.505,21.2,4.679-4.179,12-15.82,16.076-16.339,2.329-.3-5.4-16.811-5.4-16.811s-3.532-9.752-8.326-22.208a22.37,22.37,0,0,0-16.249-14.209S461.8,299.368,455.857,308.09Z" transform="translate(-300.316 -196.016)" fill="#3f3d56"/>
    <path id="Path_244" data-name="Path 244" d="M236.174,582.636h8.978l4.271-34.63H236.172Z" transform="translate(-80.343 -186.424)" fill="#a0616a"/>
    <path id="Path_245" data-name="Path 245" d="M453.368,736.316H455.9l9.866-4.012,5.288,4.012h0a11.268,11.268,0,0,1,11.268,11.267v.367H453.369Z" transform="translate(-299.828 -343.036)" fill="#2f2e41"/>
    <path id="Path_246" data-name="Path 246" d="M299.39,582.636h8.978l4.272-34.63H299.389Z" transform="translate(-101.848 -186.424)" fill="#a0616a"/>
    <path id="Path_247" data-name="Path 247" d="M516.585,736.316h2.527l9.866-4.012,5.288,4.012h0a11.268,11.268,0,0,1,11.268,11.267v.367H516.586Z" transform="translate(-321.333 -343.036)" fill="#2f2e41"/>
    <path id="Path_248" data-name="Path 248" d="M490.815,455.889l-58.4,1.46c-11.091,6.024-11.26,19.062-7.625,34.543,0,0-1.227,9.2,1.227,11.655s3.68,2.454,2.454,6.747,5.255,11.307,4.468,12.094-2.628,5.081-2.628,5.081l6.134,34.964s4.294,60.726,5.521,61.953,2.454,0,1.227,3.067-2.454,1.84-1.227,3.067a45.173,45.173,0,0,1,3.067,3.68h14.83s1.118-6.134,1.118-6.747,1.227-4.294,1.227-4.907-1.084-1.7-1.084-1.7a20.18,20.18,0,0,1-.756-3.823c0-1.227-3.68-48.459-3.68-48.459l7.361-61.34,17.789,60.113s0,52.752,1.227,53.979,1.227.613.613,3.067-3.067,1.84-1.227,3.68,2.454-1.227,1.84,1.84l-.613,3.067,18.4.263s2.454-5.17,1.227-7.011-1.153-1.338.344-4.349,2.11-3.625,1.5-4.238-.613-3.876-.613-3.876l-3.067-58.691s-.613-61.953-.613-63.794a6.118,6.118,0,0,1,.51-2.76v-2.5l-2.35-8.851Z" transform="translate(-289.387 -249.003)" fill="#2f2e41"/>
    <circle id="Ellipse_8" data-name="Ellipse 8" cx="18.145" cy="18.145" r="18.145" transform="translate(148.203 49.166)" fill="#a0616a"/>
    <path id="Path_249" data-name="Path 249" d="M462.688,285.48c3.909,2.324,6.247,6.594,7.59,10.939a103.662,103.662,0,0,1,4.455,24.767l1.418,25.166,17.559,53.586c-15.218,12.877-72.42,2.927-72.42,2.927s-1.756-.585,0-2.341,3.465-.2,1.709-1.956-.545.2.04-1.556,0-.585-.585-1.171,4.531-5.853,4.531-5.853L422.3,359.229l-5.853-62.043c7.024-8.78,21.149-13.955,21.149-13.955l3.65-6.57,18.249,1.46Z" transform="translate(-287.268 -188.032)" fill="#3f3d56"/>
    <path id="Path_250" data-name="Path 250" d="M477.052,222.353a8.409,8.409,0,0,1,2.987,4.2,59.057,59.057,0,0,0,.039-8.234c-.214-1.927-1.57-2.36-3.141-2.863-1.419-.454-3.023-.966-3.455-2.837-5.7-5.549-15.632-5.269-22.428-3.333-3.739,1.065-5.89,2.433-6.083,3.235l-.04.165-.152.076c-2.882,1.441-3.443,5.992-3.406,9.555.07,6.714,2.388,14.34,3.694,14.959.069.033.087.02.117,0h0c1.966-1.572,4.366.119,5.42,1.039A18.871,18.871,0,0,1,467.5,222.3a29.608,29.608,0,0,0,4.073-.683,8.575,8.575,0,0,1,2.081-.273A5.921,5.921,0,0,1,477.052,222.353Z" transform="translate(-295.747 -164.682)" fill="#2f2e41"/>
    <path id="Path_251" data-name="Path 251" d="M658.94,441.825l34.9-35.444,9.2-28.348-14.8-5.986c-7.331,7.395-14.877,30.031-14.877,30.031l-23.823,31.973c-.19.071-.38.145-.567.234a7.051,7.051,0,1,0,9.965,7.539Z" transform="translate(-364.996 -220.481)" fill="#ffb8b8"/>
    <path id="Path_252" data-name="Path 252" d="M704.453,359.447l18.714,5.414.07-.013c6.879-1.336,12.321-12.768,15.674-22.123a12.93,12.93,0,0,0-7-16.2h0a12.958,12.958,0,0,0-13.523,2.062l-9.331,8.034Z" transform="translate(-385.243 -204.638)" fill="#0a73fe"/>
    <path id="Path_253" data-name="Path 253" d="M451.863,578.88H441.8l-4.788-38.82h14.854Z" transform="translate(-148.666 -183.721)" fill="#ffb8b8"/>
    <path id="Path_254" data-name="Path 254" d="M667.345,733.932h-2.833l-11.06-4.5-5.928,4.5h0a12.632,12.632,0,0,0-12.631,12.631v.411h32.452Z" transform="translate(-361.58 -342.06)" fill="#2f2e41"/>
    <path id="Path_255" data-name="Path 255" d="M519.546,578.88H509.482l-4.788-38.82h14.854Z" transform="translate(-171.69 -183.721)" fill="#ffb8b8"/>
    <path id="Path_256" data-name="Path 256" d="M735.028,733.932H732.2l-11.06-4.5-5.928,4.5h0a12.632,12.632,0,0,0-12.631,12.63v.411h32.452Z" transform="translate(-384.605 -342.06)" fill="#2f2e41"/>
    <path id="Path_257" data-name="Path 257" d="M728.108,485.686a106.839,106.839,0,0,1-1.763,27.618c-2.938,13.515-2.938,51.578-2.938,51.578l-6.464,74.17-19.391-1.763L692.264,513.3l-18.8,41.72,1.763,5.876-2.348,1.469s1.761,11.458.585,11.458-4.113,1.763-4.113,1.763l2.35,60.524-19.979-.588-7.052-85.2,7.639-48.771.588-9.4,2.644.109,1.346-3.928,2.473-6.757Z" transform="translate(-364.905 -257.74)" fill="#2f2e41"/>
    <path id="Path_258" data-name="Path 258" d="M734.576,422.6l.1-.147c5.593-7.831-2.819-26.647-4.088-29.375l5.344-1.734-1.2-10.229-.57-4.56,4.084-4.084.011-.1,2.35-20.566,3.417-13.66a29.989,29.989,0,0,0-8.512-29.063l-7.9-7.448-9.6-14.2H702.534l-5.308,10.027a22.565,22.565,0,0,0-17.459,23.038l1.2,26.3-4.71,32.742,0,5.925-5.3,5.89,1.157,5.787-4.034,1.729-1.781,8.311c-.737.973-5.6,7.46-5.6,9.233,0,.266.2.524.618.809,3.316,2.245,21.642,6.822,29.753,3.577,8.64-3.454,42.984,1.728,43.33,1.781Z" transform="translate(-370.358 -191.695)" fill="#0a73fe"/>
    <circle id="Ellipse_9" data-name="Ellipse 9" cx="20.503" cy="20.503" r="20.503" transform="translate(317.414 50.142)" fill="#ffb8b8"/>
    <path id="Path_259" data-name="Path 259" d="M716.45,256.644a55.759,55.759,0,0,0,9.466-.907c3.092-.712,9.915-5.988,11.775-9.105h0a27.4,27.4,0,0,0,2.663-8.494,24.927,24.927,0,0,0-4.869-19.67,7.875,7.875,0,0,0-3.25-2.632c-.115-.042-.233-.078-.353-.109a9.717,9.717,0,0,1-4.909-2.865,8.007,8.007,0,0,0-.825-.806,11.968,11.968,0,0,0-5.057-2.378c-2.988-.718-7.262.182-12.7,2.675-2.734,1.253-5.768.9-8.107.459a.761.761,0,0,0-.71.264,5.374,5.374,0,0,1-3.613,1.55c-.83.058-1.673,1.231-2.688,2.76-.23.347-.5.752-.694,1l-.039-.464-.457.53a6.521,6.521,0,0,0,3.217,10.544,12.717,12.717,0,0,0,2.567.341c.525.034,1.067.068,1.588.145a9.831,9.831,0,0,1,7.468,6.189,2.571,2.571,0,0,0,3.912,1.148,4.248,4.248,0,0,1,3.851-.8,2.82,2.82,0,0,1,1.283,1.381,3.674,3.674,0,0,0,1.436,1.59c2.135,1.032,2.4,5.84,1.751,9.87-.63,3.885-2,6.719-3.33,6.892-1.025.133-1.141.209-1.21.393l-.062.164.119.149A4.2,4.2,0,0,0,716.45,256.644Z" transform="translate(-380.497 -165.164)" fill="#2f2e41"/>
    <path id="Path_260" data-name="Path 260" d="M661.51,373.812l-9.856-12.558C641.616,364.018,623.8,379.9,623.8,379.9L587.222,395.77a7.048,7.048,0,1,0,4.282,11.419l47.92-13.369Z" transform="translate(-342.568 -216.81)" fill="#ffb8b8"/>
    <path id="Path_261" data-name="Path 261" d="M692.02,362.264l15.551-17.335.863-12.283A12.96,12.96,0,0,0,702,320.573h0a12.929,12.929,0,0,0-17.176,4.072c-5.495,8.281-11.406,19.477-8.364,25.79l.031.064Z" transform="translate(-375.439 -202.391)" fill="#0a73fe"/>
    <path id="Path_262" data-name="Path 262" d="M460.876,439.672l-40.416-20.7c-2.875-1.472-3.827-5.378-2.123-8.705l26.352-51.455c1.7-3.328,5.43-4.837,8.3-3.365l40.416,20.7c2.875,1.472,3.827,5.378,2.123,8.705L469.18,436.306C467.476,439.634,463.75,441.144,460.876,439.672Z" transform="translate(-287.622 -214.642)" fill="#e6e6e6"/>
    <path id="Path_263" data-name="Path 263" d="M457.187,433.574,429.727,419.51c-2.692-1.379-3.585-5.036-1.988-8.153l21.893-42.748c1.6-3.117,5.085-4.53,7.778-3.151l33.165,16.986c2.692,1.379,3.584,5.036,1.988,8.153L480.67,413.819C473.56,427.7,469.18,439.716,457.187,433.574Z" transform="translate(-290.839 -218.06)" fill="#fff"/>
    <path id="Path_264" data-name="Path 264" d="M480.486,425.74l-24.322-12.456a1.521,1.521,0,0,1,1.372-2.679l24.322,12.456a1.521,1.521,0,0,1-1.372,2.679Z" transform="translate(-300.562 -233.57)" fill="#0a73fe"/>
    <path id="Path_265" data-name="Path 265" d="M457.606,424.148l-5.55-2.843a1.521,1.521,0,0,1,1.372-2.679l5.55,2.843a1.521,1.521,0,0,1-1.372,2.679Z" transform="translate(-299.164 -236.299)" fill="#0a73fe"/>
    <path id="Path_266" data-name="Path 266" d="M463.328,437.205l-15.381-7.878a1.521,1.521,0,0,1,1.372-2.679l15.381,7.877a1.521,1.521,0,0,1-1.372,2.679Z" transform="translate(-297.766 -239.028)" fill="#0a73fe"/>
    <path id="Path_267" data-name="Path 267" d="M495.073,397.258,470.751,384.8a1.521,1.521,0,0,1,1.372-2.679l24.322,12.456a1.521,1.521,0,0,1-1.372,2.679Z" transform="translate(-305.524 -223.881)" fill="#0a73fe"/>
    <path id="Path_268" data-name="Path 268" d="M472.193,395.666l-5.55-2.843a1.521,1.521,0,0,1,1.372-2.679l5.55,2.843a1.521,1.521,0,0,1-1.372,2.679Z" transform="translate(-304.126 -226.61)" fill="#0a73fe"/>
    <path id="Path_269" data-name="Path 269" d="M477.915,408.723l-15.381-7.878a1.521,1.521,0,0,1,1.372-2.679l15.381,7.877a1.521,1.521,0,0,1-1.372,2.679Z" transform="translate(-302.728 -229.339)" fill="#0a73fe"/>
    <path id="Path_270" data-name="Path 270" d="M427.777,395.587,418.647,361.6l24.4-4.619-1.312,23.332,32.059,33.01a8.753,8.753,0,1,1-8.324,9.866Z" transform="translate(-288.016 -215.354)" fill="#a0616a"/>
    <path id="Path_271" data-name="Path 271" d="M413.235,304.063c-8.282,6.538,2.348,43.111,2.348,43.111,1.646-1.806,3.558,24.888,5.57,23.979,5.717-2.583,16.2-11.491,20.236-10.765,2.31.415-.11-17.657-.11-17.657s-.445-10.362-1.282-23.683a22.37,22.37,0,0,0-11.239-18.428S421.517,297.524,413.235,304.063Z" transform="translate(-285.101 -195.933)" fill="#3f3d56"/>
    <path id="Path_272" data-name="Path 272" d="M611.323,505.981l-22.055-10.415a3.452,3.452,0,0,1-1.894-2.338,3.381,3.381,0,0,1,.628-2.88,66.365,66.365,0,0,0,12.809-27.88,3.429,3.429,0,0,1,3.36-2.765c11.248.038,19.655,4.145,24.986,12.206a3.472,3.472,0,0,1,.454,2.887,108.557,108.557,0,0,1-13.927,29.96,3.444,3.444,0,0,1-4.361,1.224Z" transform="translate(-345.383 -250.301)" fill="#e6e6e6"/>
    <path id="Path_273" data-name="Path 273" d="M624.34,501.88l-16.863-7.963a1.749,1.749,0,0,1,1.494-3.164l16.864,7.963a1.749,1.749,0,1,1-1.494,3.164Z" transform="translate(-351.912 -260.806)" fill="#fff"/>
    <path id="Path_274" data-name="Path 274" d="M628.31,493.472l-16.863-7.963a1.749,1.749,0,0,1,1.494-3.164l16.864,7.963a1.749,1.749,0,1,1-1.494,3.164Z" transform="translate(-353.263 -257.946)" fill="#fff"/>
    <path id="Path_275" data-name="Path 275" d="M500.77,203.71l-1.57.172c-7-27.5-20.565-46.558-39.233-55.1-23.732-10.863-53.078-3.568-82.631,20.54-29.7,24.231-56,62.506-74.042,107.776l-1.523-.7c18.122-45.467,44.553-83.927,74.423-108.293,30.02-24.489,59.964-31.837,84.317-20.69C479.714,156.2,493.636,175.671,500.77,203.71Z" transform="translate(-248.256 -142.337)" fill="#f2f2f2"/>
    <path id="Path_276" data-name="Path 276" d="M318.422,289.242c-4.105,8.648-8.01,17.607-11.606,26.629-20.692,51.916-31.178,104.935-30.321,153.329l-1.617-.173c-.858-48.574,9.658-101.777,30.415-153.854,3.606-9.047,7.522-18.032,11.639-26.7Z" transform="translate(-239.091 -192.049)" fill="#f2f2f2"/>
    <path id="Path_277" data-name="Path 277" d="M317.246,343.306c-4.105,8.648-8.01,17.607-11.606,26.629-20.692,51.916-31.178,104.935-30.321,153.329l-1.617-.173c-.858-48.574,9.658-101.777,30.415-153.854,3.606-9.047,7.522-18.032,11.639-26.7Z" transform="translate(-238.691 -210.441)" fill="#f2f2f2"/>
    <ellipse id="Ellipse_10" data-name="Ellipse 10" cx="5.844" cy="6.727" rx="5.844" ry="6.727" transform="translate(20.65 143.253) rotate(-56.364)" fill="#ccc"/>
    <ellipse id="Ellipse_11" data-name="Ellipse 11" cx="5.844" cy="6.727" rx="5.844" ry="6.727" transform="translate(401.326 240.293) rotate(-56.364)" fill="#ccc"/>
  </g>
</svg>
