<svg id="visibility" xmlns="http://www.w3.org/2000/svg" width="15.723" height="9.172" viewBox="0 0 15.723 9.172">
  <g id="Group_170" data-name="Group 170">
    <g id="Group_169" data-name="Group 169" transform="translate(0 0)">
      <path id="Path_120" data-name="Path 120" d="M15.665,111.062c-.124-.18-3.1-4.4-7.8-4.4-4.036,0-7.633,4.2-7.784,4.374a.329.329,0,0,0,0,.423c.151.179,3.748,4.374,7.784,4.374s7.633-4.2,7.784-4.374A.328.328,0,0,0,15.665,111.062Zm-7.8,4.117c-3.236,0-6.312-3.086-7.094-3.931.78-.846,3.853-3.931,7.094-3.931,3.786,0,6.458,3.081,7.111,3.913C14.219,112.048,11.125,115.179,7.862,115.179Z" transform="translate(0 -106.662)" fill="#0a73fe"/>
    </g>
  </g>
  <g id="Group_172" data-name="Group 172" transform="translate(5.241 1.965)">
    <g id="Group_171" data-name="Group 171" transform="translate(0 0)">
      <path id="Path_121" data-name="Path 121" d="M173.282,170.662a2.62,2.62,0,1,0,2.62,2.62A2.623,2.623,0,0,0,173.282,170.662Zm0,4.586a1.965,1.965,0,1,1,1.965-1.965A1.968,1.968,0,0,1,173.282,175.248Z" transform="translate(-170.662 -170.662)" fill="#0a73fe"/>
    </g>
  </g>
</svg>
