<svg xmlns="http://www.w3.org/2000/svg" width="57.93" height="45" viewBox="0 0 57.93 45">
  <g id="friends" transform="translate(0 -57.142)">
    <g id="Group_256" data-name="Group 256" transform="translate(7.001 57.142)">
      <g id="Group_255" data-name="Group 255">
        <path id="Path_124" data-name="Path 124" d="M72.447,57.142c-5.83,0-10.574,5.029-10.574,11.211s4.743,11.211,10.574,11.211,10.574-5.029,10.574-11.211S78.277,57.142,72.447,57.142Z" transform="translate(-61.873 -57.142)" fill="#0a73fe"/>
      </g>
    </g>
    <g id="Group_258" data-name="Group 258" transform="translate(32.545 58.746)">
      <g id="Group_257" data-name="Group 257">
        <path id="Path_125" data-name="Path 125" d="M296.707,71.321h-.072a8.772,8.772,0,0,0-6.435,2.909,10.013,10.013,0,0,0,.111,13.5,8.774,8.774,0,0,0,6.41,2.8h.073a8.772,8.772,0,0,0,6.435-2.909,9.844,9.844,0,0,0,2.562-6.772A9.369,9.369,0,0,0,296.707,71.321Z" transform="translate(-287.637 -71.321)" fill="#0a73fe"/>
      </g>
    </g>
    <g id="Group_260" data-name="Group 260" transform="translate(30.545 79.795)">
      <g id="Group_259" data-name="Group 259">
        <path id="Path_126" data-name="Path 126" d="M281.476,257.358H280.6a15.812,15.812,0,0,0-10.638,4.1,20.414,20.414,0,0,1,7.971,15.146h19.415v-3.38A15.887,15.887,0,0,0,281.476,257.358Z" transform="translate(-269.96 -257.358)" fill="#0a73fe"/>
      </g>
    </g>
    <g id="Group_262" data-name="Group 262" transform="translate(0 83.072)">
      <g id="Group_261" data-name="Group 261">
        <path id="Path_127" data-name="Path 127" d="M35.115,302.29A17.043,17.043,0,0,0,18.1,286.318H17.046A17.046,17.046,0,0,0,0,303.364v2.023H35.149v-2.023Q35.149,302.823,35.115,302.29Z" transform="translate(0 -286.318)" fill="#0a73fe"/>
      </g>
    </g>
  </g>
</svg>
