<svg xmlns="http://www.w3.org/2000/svg" width="39" height="39" viewBox="0 0 39 39">
  <g id="checked" transform="translate(0 0)">
    <circle id="Ellipse_17" data-name="Ellipse 17" cx="19.5" cy="19.5" r="19.5" transform="translate(0 0)" fill="#32ba7c"/>
    <path id="Path_22" data-name="Path 22" d="M188.8,168.4l9.9,9.9a19.238,19.238,0,0,0,14.271-18.582v-.547L205.2,152Z" transform="translate(-174.469 -140.462)" fill="#0aa06e"/>
    <g id="Group_40" data-name="Group 40" transform="translate(6.467 9.504)">
      <path id="Path_23" data-name="Path 23" d="M98.469,208.011a2.274,2.274,0,0,1,0,3.158l-1.761,1.761a2.274,2.274,0,0,1-3.158,0l-7.712-7.773a2.274,2.274,0,0,1,0-3.158l1.761-1.761a2.274,2.274,0,0,1,3.158,0Z" transform="translate(-85.2 -193.952)" fill="#fff"/>
      <path id="Path_24" data-name="Path 24" d="M178.4,125.838a2.274,2.274,0,0,1,3.158,0l1.761,1.761a2.274,2.274,0,0,1,0,3.158l-13.36,13.3a2.274,2.274,0,0,1-3.158,0l-1.761-1.761a2.274,2.274,0,0,1,0-3.158Z" transform="translate(-158.388 -125.2)" fill="#fff"/>
    </g>
  </g>
</svg>
