<svg xmlns="http://www.w3.org/2000/svg" width="42.185" height="45" viewBox="0 0 42.185 45">
  <g id="instant-message" transform="translate(-37.818 -23.376)">
    <path id="Path_284" data-name="Path 284" d="M79.791,42.964,69.5,34.019a.615.615,0,0,0-1.019.464v4.034H55.913a7.293,7.293,0,0,0-4.688-6.349,4.774,4.774,0,1,0-5.152,0,7.288,7.288,0,0,0-4.7,6.807.615.615,0,0,0,1.23,0,6.05,6.05,0,1,1,12.1,0,.538.538,0,0,1,0,.158.615.615,0,0,0,.615.615H69.1a.615.615,0,0,0,.615-.615v-3.3l8.741,7.6-8.741,7.6V47.7a.614.614,0,0,0-.615-.615H49.339V43.051a.615.615,0,0,0-1.019-.464L38.029,51.534a.616.616,0,0,0,0,.928L48.322,61.41a.614.614,0,0,0,1.017-.465V56.911H58.91a.615.615,0,0,0,0-1.23H48.724a.615.615,0,0,0-.615.615v3.3L39.368,52l8.741-7.6v3.3a.615.615,0,0,0,.615.615H68.481v3.874a4.772,4.772,0,0,0-1.887,8.739,7.292,7.292,0,0,0-4.7,6.807.616.616,0,1,0,1.231,0,6.049,6.049,0,0,1,12.1,0,.615.615,0,0,0,1.23,0,7.29,7.29,0,0,0-4.7-6.807,4.771,4.771,0,0,0-1.561-8.684l9.607-8.35a.616.616,0,0,0,0-.928ZM45.106,28.153A3.544,3.544,0,1,1,48.649,31.7,3.544,3.544,0,0,1,45.106,28.153ZM72.714,56.912a3.544,3.544,0,1,1-3.543-3.543A3.544,3.544,0,0,1,72.714,56.912Z" transform="translate(0 0)" fill="#0a73fe"/>
    <path id="Path_285" data-name="Path 285" d="M230.886,223.8a.615.615,0,1,0,0-1.23H220.555a.615.615,0,1,0,0,1.23Z" transform="translate(-164.516 -179.938)" fill="#0a73fe"/>
    <path id="Path_286" data-name="Path 286" d="M143.385,314.48a.615.615,0,0,0,0,1.23h10.331a.615.615,0,0,0,0-1.23Z" transform="translate(-94.806 -262.962)" fill="#0a73fe"/>
  </g>
</svg>
