<svg height="512pt" viewBox="-2 0 512 512.00051" width="512pt" xmlns="http://www.w3.org/2000/svg"><path d="m507.84375 193.429688c0-4.726563-2.300781-9.3125-6.085938-12.140626l-238.769531-178.277343c-5.378906-4.015625-12.753906-4.015625-18.132812 0l-238.769531 178.277343c-3.785157 2.828126-6.085938 7.410157-6.085938 12.140626v303.417968c0 8.242188 6.914062 15.152344 15.152344 15.152344h477.539062c8.238282 0 15.152344-6.910156 15.152344-15.152344zm-477.539062 30.726562 125.792968 96.53125-125.792968 137.214844zm354 33.351562-119.351563 91.589844c-6.496094 4.984375-15.566406 4.984375-22.0625 0l-119.347656-91.589844v-71.21875h260.761719zm-204.074219 81.699219 44.210937 33.929688c17.167969 13.175781 41.792969 13.175781 58.960938 0l44.210937-33.929688 130.632813 142.492188h-408.648438zm171.519531-18.519531 125.792969-96.53125v233.746094zm-97.828125-286.628906 213.667969 159.535156-52.984375 40.660156v-63.117187c0-8.367188-6.78125-15.152344-15.152344-15.152344h-291.0625c-8.367187 0-15.152344 6.785156-15.152344 15.152344v63.117187l-52.980469-40.660156zm0 0"/><path d="m194.210938 246.707031h119.421874c19.496094 0 19.554688-30.300781 0-30.300781h-119.421874c-19.496094 0-19.550782 30.300781 0 30.300781zm0 0"/><path d="m287.121094 274.6875h-66.398438c-19.492187 0-19.550781 30.304688 0 30.304688h66.398438c19.496094 0 19.550781-30.304688 0-30.304688zm0 0"/></svg>