<?xml version="1.0" encoding="UTF-8"?>
<svg xmlns="http://www.w3.org/2000/svg" id="Layer_3" data-name="Layer 3" viewBox="0 0 64 64" width="512" height="512"><path d="M32,42A10,10,0,1,0,42,32,10.011,10.011,0,0,0,32,42Zm7-7.411V41H34.069A8.016,8.016,0,0,1,39,34.589ZM34.069,43H40a1,1,0,0,0,1-1V34.069A8.047,8.047,0,0,1,42,34a7.945,7.945,0,0,1,3,.589V49.411A7.982,7.982,0,0,1,34.069,43ZM50,42a7.984,7.984,0,0,1-3,6.235V35.765A7.984,7.984,0,0,1,50,42Z"/><path d="M61.879,56.464l-7.656-7.656A13.964,13.964,0,0,0,47,28.939V2a1,1,0,0,0-1-1H2A1,1,0,0,0,1,2V62a1,1,0,0,0,1,1H46a1,1,0,0,0,1-1V55.061a13.828,13.828,0,0,0,1.809-.839l7.656,7.656a3.828,3.828,0,0,0,5.414-5.414ZM54,42A12,12,0,1,1,42,30,12.013,12.013,0,0,1,54,42ZM9,41V23H39v5.332a13.9,13.9,0,0,0-4,1.562V29H13v2H33.368a14.113,14.113,0,0,0-2.075,2H13v2H29.9a13.871,13.871,0,0,0-.956,2H13v2H28.332a13.857,13.857,0,0,0-.281,2ZM45,61H3V3H45V28.332A14,14,0,0,0,42,28c-.338,0-.668.027-1,.051V22a1,1,0,0,0-1-1H8a1,1,0,0,0-1,1V42a1,1,0,0,0,1,1H28.051a13.863,13.863,0,0,0,.888,4H7v2H29.894A13.928,13.928,0,0,0,45,55.668Zm14.172,0a1.839,1.839,0,0,1-1.293-.536l-7.371-7.371a14.1,14.1,0,0,0,2.585-2.586l7.372,7.371A1.829,1.829,0,0,1,59.172,61Z"/><path d="M14,19h2a3,3,0,0,0,3-3V7H17v9a1,1,0,0,1-1,1H14a1,1,0,0,1-1-1V14H11v2A3,3,0,0,0,14,19Z"/><path d="M23,19h2a3,3,0,0,0,3-3V10a3,3,0,0,0-3-3H23a3,3,0,0,0-3,3v6A3,3,0,0,0,23,19Zm-1-9a1,1,0,0,1,1-1h2a1,1,0,0,1,1,1v6a1,1,0,0,1-1,1H23a1,1,0,0,1-1-1Z"/><path d="M30,19h3.5a3.5,3.5,0,0,0,2.447-6A3.5,3.5,0,0,0,33.5,7H30a1,1,0,0,0-1,1V18A1,1,0,0,0,30,19ZM31,9h2.5a1.5,1.5,0,0,1,0,3H31Zm0,5h2.5a1.5,1.5,0,0,1,0,3H31Z"/><rect x="15" y="25" width="20" height="2"/><rect x="7" y="51" width="14" height="2"/><rect x="23" y="51" width="6" height="2"/></svg>
