<?xml version="1.0"?>
<svg xmlns="http://www.w3.org/2000/svg" xmlnsXlink="http://www.w3.org/1999/xlink" xmlnsSvgjs="http://svgjs.com/svgjs" version="1.1" width="512" height="512" x="0" y="0" viewBox="0 0 512 512" style="enable-background:new 0 0 512 512" xml:space="preserve" class=""><g><path xmlns="http://www.w3.org/2000/svg" d="m462.62 222.78a85.26 85.26 0 0 0 -78.62-52.11h-82.07l7.42-51.94a85.28 85.28 0 0 0 -84.48-97.4h-14.37a42.69 42.69 0 0 0 -42.24 36.67l-16.1 112.7h-88.16a21.33 21.33 0 0 0 -21.33 21.3v234.67a21.33 21.33 0 0 0 21.33 21.33h298.67a106.59 106.59 0 0 0 106.66-106.67v-85.33a84.89 84.89 0 0 0 -6.71-33.22zm-377.29-9.45h64v192h-64zm341.34 128a64.07 64.07 0 0 1 -64 64h-170.67v-211.81l18.5-129.52h14.37a42.66 42.66 0 0 1 42.24 48.7l-10.9 76.3a21.34 21.34 0 0 0 21.12 24.35h106.67a42.72 42.72 0 0 1 42.67 42.65z" fill="#0a73fe" data-original="#000000" class=""/></g></svg>
