<svg xmlns="http://www.w3.org/2000/svg" width="45" height="45" viewBox="0 0 45 45">
  <g id="magnifier" transform="translate(-0.001 0)">
    <g id="Group_264" data-name="Group 264" transform="translate(0.001 0)">
      <path id="Path_128" data-name="Path 128" d="M39.661,31.162A18.26,18.26,0,0,0,13.839,5.339a17.9,17.9,0,0,0-2.747,22.037.768.768,0,0,1-.106.915L1.67,37.607c-1.854,1.854-2.3,4.447-.651,6.091l.283.283c1.644,1.645,4.237,1.2,6.091-.651l9.3-9.3a.78.78,0,0,1,.935-.126A17.9,17.9,0,0,0,39.661,31.162ZM17.21,27.791a13.492,13.492,0,1,1,19.08,0A13.507,13.507,0,0,1,17.21,27.791Z" transform="translate(-0.001 0)" fill="#0a73fe"/>
      <g id="Group_263" data-name="Group 263" transform="translate(16.49 7.308)">
        <path id="Path_129" data-name="Path 129" d="M115.636,60.269a1.886,1.886,0,0,1-1.735-2.619,11.877,11.877,0,0,1,15.549-6.3,1.885,1.885,0,1,1-1.469,3.471,8.1,8.1,0,0,0-10.609,4.3A1.885,1.885,0,0,1,115.636,60.269Z" transform="translate(-113.752 -50.409)" fill="#0a73fe"/>
      </g>
    </g>
  </g>
</svg>
