<?xml version="1.0" encoding="UTF-8" standalone="no"?>
<svg
   xmlnsDc="http://purl.org/dc/elements/1.1/"
   xmlnsCc="http://creativecommons.org/ns#"
   xmlnsRdf="http://www.w3.org/1999/02/22-rdf-syntax-ns#"
   xmlnsSvg="http://www.w3.org/2000/svg"
   xmlns="http://www.w3.org/2000/svg"
   viewBox="0 0 283.46667 75.587196"
   height="75.587196"
   width="283.46667"
   xmlSpace="preserve"
   id="svg2"
   version="1.1"><metadata
     id="metadata8"><rdfRDF><ccWork
         rdfAbout=""><dcFormat>image/svg+xml</dcFormat><dcType
           rdf:resource="http://purl.org/dc/dcmitype/StillImage" /></ccWork></rdfRDF></metadata><defs
     id="defs6"><clipPath
       id="clipPath18"
       clipPathUnits="userSpaceOnUse"><path
         id="path16"
         d="M 0,56.69 H 212.6 V 0 H 0 Z" /></clipPath></defs><g
     transform="matrix(1.3333333,0,0,-1.3333333,0,75.5872)"
     id="g10"><g
       id="g12"><g
         clip-path="url(#clipPath18)"
         id="g14"><g
           transform="translate(33.3242,14.6123)"
           id="g20"><path
             id="path22"
             style="fill:#d90a78;fill-opacity:1;fill-rule:nonzero;stroke:none"
             d="M 0,0 C -0.002,0.008 -0.078,0.256 -0.108,0.365 L -0.163,0.35 c -15.376,-3.532 -17.295,11.574 -17.295,13.709 0,0.006 10e-4,0.013 10e-4,0.021 -0.408,6.004 2.637,11.912 8.426,14.585 1.116,0.514 2.261,1.037 3.416,1.317 -0.39,-0.026 -0.776,-0.065 -1.157,-0.12 -1.493,-0.282 -7.448,-1.079 -11.96,-7.479 -1.769,-2.508 -2.604,-5.551 -2.604,-8.668 0,-5.488 3.037,-9.404 5.148,-11.449 2.356,-2.284 5.562,-3.6 9.873,-3.68 1.634,-0.031 3.215,0.197 4.703,0.644 C -0.559,-0.434 0.001,0 0.001,0 -0.001,-0.002 -0.002,-0.002 -0.003,-0.002 -0.002,-0.002 -0.001,0 0,0" /></g><g
           transform="translate(31.4697,39.8936)"
           id="g24"><path
             id="path26"
             style="fill:#d90a78;fill-opacity:1;fill-rule:nonzero;stroke:none"
             d="m 0,0 c -0.603,0.449 -1.375,0.694 -2.258,0.699 -0.003,0 -0.007,0 -0.01,0 -0.235,0 -0.461,-0.012 -0.679,-0.033 -0.005,0 -0.012,0 -0.017,-0.001 C -2.977,0.664 -2.989,0.662 -3.002,0.661 -3.686,0.591 -4.297,0.424 -4.843,0.175 h 0.001 c -3.185,-1.458 -4.19,-5.133 -4.19,-9.451 h 0.107 c 7.861,0 10.82,3.11 10.82,5.878 C 1.895,-1.771 1.168,-0.579 0,0" /></g><g
           transform="translate(47.5371,34.0669)"
           id="g28"><path
             id="path30"
             style="fill:#d90a78;fill-opacity:1;fill-rule:nonzero;stroke:none"
             d="m 0,0 c -0.61,2.963 -7.402,10.442 -16.306,10.729 0.385,-0.048 0.747,-0.102 1.085,-0.16 v -0.001 c 3.856,-0.815 9.678,-6.141 5.095,-12.172 -4.477,-5.89 -14.74,-6.017 -14.74,-6.017 v -0.064 c 0.466,-4.242 1.926,-7.043 6.618,-7.043 1.744,0 3.909,0.48 5.595,1.021 0.753,0.223 1.475,0.477 2.187,0.764 0.096,-0.228 1.155,-2.887 1.728,-4.158 l 0.663,0.562 -0.441,-0.373 C -2.83,-11.472 0.545,-2.654 0,0" /></g><g
           transform="translate(50.7383,36.4609)"
           id="g32"><path
             id="path34"
             style="fill:#373334;fill-opacity:1;fill-rule:nonzero;stroke:none"
             d="m 0,0 h 4.563 v -8.664 c 0,-1.685 0.116,-2.857 0.348,-3.511 0.232,-0.656 0.605,-1.168 1.118,-1.531 0.514,-0.363 1.147,-0.545 1.898,-0.545 0.752,0 1.389,0.18 1.915,0.537 0.524,0.36 0.914,0.885 1.168,1.58 0.187,0.518 0.282,1.625 0.282,3.322 V 0 h 4.513 v -7.622 c 0,-3.141 -0.248,-5.289 -0.744,-6.447 -0.606,-1.41 -1.499,-2.494 -2.678,-3.248 -1.18,-0.756 -2.679,-1.133 -4.497,-1.133 -1.973,0 -3.569,0.441 -4.786,1.322 -1.218,0.883 -2.075,2.111 -2.571,3.688 C 0.177,-12.351 0,-10.366 0,-7.489 Z" /></g><g
           transform="translate(70.5693,36.4609)"
           id="g36"><path
             id="path38"
             style="fill:#373334;fill-opacity:1;fill-rule:nonzero;stroke:none"
             d="m 0,0 h 3.868 v -2.265 c 0.419,0.893 0.976,1.571 1.67,2.034 C 6.232,0.231 6.993,0.463 7.819,0.463 8.403,0.463 9.015,0.308 9.654,0 L 8.249,-3.885 c -0.529,0.264 -0.964,0.397 -1.306,0.397 -0.694,0 -1.281,-0.43 -1.76,-1.29 -0.48,-0.86 -0.719,-2.546 -0.719,-5.059 l 0.016,-0.875 v -7.275 H 0 Z" /></g><g
           transform="translate(90.2764,32.6748)"
           id="g40"><path
             id="path42"
             style="fill:#373334;fill-opacity:1;fill-rule:nonzero;stroke:none"
             d="m 0,0 c -1.402,0 -2.57,-0.487 -3.503,-1.463 -0.933,-0.975 -1.399,-2.224 -1.399,-3.744 0,-1.566 0.461,-2.834 1.382,-3.803 0.922,-0.97 2.09,-1.455 3.503,-1.455 1.413,0 2.589,0.49 3.528,1.473 0.937,0.98 1.407,2.242 1.407,3.785 0,1.542 -0.461,2.796 -1.383,3.761 C 2.613,-0.482 1.436,0 0,0 m -0.074,4.249 c 1.697,0 3.292,-0.424 4.786,-1.273 1.493,-0.849 2.658,-2 3.496,-3.455 0.838,-1.455 1.257,-3.026 1.257,-4.712 0,-1.698 -0.422,-3.284 -1.265,-4.762 -0.844,-1.477 -1.992,-2.631 -3.447,-3.463 -1.455,-0.832 -3.059,-1.248 -4.811,-1.248 -2.58,0 -4.781,0.918 -6.605,2.752 -1.824,1.836 -2.735,4.064 -2.735,6.687 0,2.811 1.03,5.153 3.09,7.027 1.808,1.631 3.886,2.447 6.234,2.447" /></g><path
           id="path44"
           style="fill:#373334;fill-opacity:1;fill-rule:nonzero;stroke:none"
           d="m 103.313,29.534 h 8.398 v -4.199 h -8.398 z" /><g
           transform="translate(115.9346,43.0903)"
           id="g46"><path
             id="path48"
             style="fill:#373334;fill-opacity:1;fill-rule:nonzero;stroke:none"
             d="m 0,0 h 4.515 v -6.629 h 2.677 v -3.886 H 4.515 V -24.617 H 0 v 14.102 h -2.314 v 3.886 H 0 Z" /></g><g
           transform="translate(134.0771,32.7578)"
           id="g50"><path
             id="path52"
             style="fill:#373334;fill-opacity:1;fill-rule:nonzero;stroke:none"
             d="m 0,0 c -1.395,0 -2.555,-0.494 -3.477,-1.48 -0.923,-0.986 -1.384,-2.251 -1.384,-3.794 0,-1.553 0.469,-2.832 1.408,-3.836 0.939,-1.002 2.096,-1.504 3.469,-1.504 1.418,0 2.593,0.494 3.527,1.48 0.934,0.987 1.398,2.278 1.398,3.877 0,1.565 -0.464,2.832 -1.398,3.802 C 2.609,-0.485 1.428,0 0,0 M 4.744,3.703 H 9.258 V -14.284 H 4.744 v 1.902 c -0.881,-0.838 -1.765,-1.441 -2.65,-1.81 -0.886,-0.37 -1.847,-0.555 -2.881,-0.555 -2.322,0 -4.332,0.9 -6.027,2.703 -1.696,1.803 -2.543,4.043 -2.543,6.721 0,2.777 0.82,5.052 2.46,6.827 1.639,1.775 3.632,2.662 5.978,2.662 1.079,0 2.091,-0.204 3.038,-0.612 0.945,-0.408 1.82,-1.019 2.625,-1.835 z" /></g><g
           transform="translate(146.4053,36.4609)"
           id="g54"><path
             id="path56"
             style="fill:#373334;fill-opacity:1;fill-rule:nonzero;stroke:none"
             d="M 0,0 H 5.24 L 8.797,-4.902 12.332,0 h 5.153 l -6.106,-8.464 6.906,-9.523 h -5.241 l -4.278,5.9 -4.257,-5.9 h -5.154 l 6.827,9.462 z" /></g><g
           transform="translate(169.2002,23.1846)"
           id="g58"><path
             id="path60"
             style="fill:#373334;fill-opacity:1;fill-rule:nonzero;stroke:none"
             d="m 0,0 c 0.717,0 1.328,-0.25 1.834,-0.752 0.508,-0.5 0.762,-1.109 0.762,-1.826 0,-0.717 -0.254,-1.328 -0.762,-1.836 C 1.328,-4.92 0.717,-5.174 0,-5.174 c -0.717,0 -1.328,0.254 -1.835,0.76 -0.508,0.508 -0.761,1.119 -0.761,1.836 0,0.717 0.253,1.326 0.761,1.826 C -1.328,-0.25 -0.717,0 0,0" /></g><g
           transform="translate(183.7314,32.7578)"
           id="g62"><path
             id="path64"
             style="fill:#373334;fill-opacity:1;fill-rule:nonzero;stroke:none"
             d="m 0,0 c -1.421,0 -2.602,-0.485 -3.537,-1.455 -0.938,-0.97 -1.406,-2.237 -1.406,-3.802 0,-1.599 0.468,-2.89 1.406,-3.877 0.935,-0.986 2.116,-1.48 3.537,-1.48 1.377,0 2.538,0.502 3.48,1.504 0.944,1.004 1.414,2.283 1.414,3.836 0,1.543 -0.463,2.808 -1.389,3.794 C 2.579,-0.494 1.411,0 0,0 M -4.745,3.703 V 1.719 c 0.815,0.816 1.698,1.427 2.645,1.835 0.949,0.408 1.963,0.612 3.042,0.612 2.349,0 4.343,-0.887 5.986,-2.662 1.642,-1.775 2.463,-4.05 2.463,-6.827 0,-2.678 -0.849,-4.918 -2.545,-6.721 -1.7,-1.803 -3.71,-2.703 -6.035,-2.703 -1.037,0 -2,0.185 -2.893,0.555 -0.895,0.369 -1.781,0.972 -2.663,1.81 v -8.482 h -4.48 V 3.703 Z" /></g><path
           id="path66"
           style="fill:#373334;fill-opacity:1;fill-rule:nonzero;stroke:none"
           d="m 196.099,43.404 h 4.513 V 18.473 h -4.513 z" /></g></g></g></svg>
