<svg id="play" xmlns="http://www.w3.org/2000/svg" width="42" height="42" viewBox="0 0 42 42">
  <g id="Group_265" data-name="Group 265">
    <path id="Path_135" data-name="Path 135" d="M21,39.9A18.9,18.9,0,1,0,2.1,21,18.9,18.9,0,0,0,21,39.9ZM21,42A21,21,0,1,0,0,21,21,21,0,0,0,21,42Z" fill="#888" fill-rule="evenodd"/>
  </g>
  <g id="Group_266" data-name="Group 266" transform="translate(14.7 11.912)">
    <path id="Path_136" data-name="Path 136" d="M78.089,62.842,68.432,56.4V69.28Zm1.951-1.223a1.47,1.47,0,0,1,0,2.446L68.617,71.681a1.47,1.47,0,0,1-2.285-1.223V55.227A1.47,1.47,0,0,1,68.617,54Z" transform="translate(-66.332 -53.755)" fill="#888" fill-rule="evenodd"/>
  </g>
</svg>
