<svg xmlns="http://www.w3.org/2000/svg" width="44.999" height="45" viewBox="0 0 44.999 45">
  <g id="resume" transform="translate(-0.007)">
    <g id="Group_266" data-name="Group 266" transform="translate(0.007)">
      <g id="Group_265" data-name="Group 265">
        <path id="Path_287" data-name="Path 287" d="M36.394,13.074a.879.879,0,0,0,.879-.879V2.637A2.64,2.64,0,0,0,34.636,0H2.644A2.64,2.64,0,0,0,.007,2.637V42.363A2.64,2.64,0,0,0,2.644,45H34.636a2.64,2.64,0,0,0,2.637-2.637V35.888a.879.879,0,1,0-1.758,0v6.475a.88.88,0,0,1-.879.879H2.644a.88.88,0,0,1-.879-.879V2.637a.88.88,0,0,1,.879-.879H34.636a.88.88,0,0,1,.879.879v9.558A.879.879,0,0,0,36.394,13.074Z" transform="translate(-0.007)" fill="#0a73fe"/>
      </g>
    </g>
    <g id="Group_268" data-name="Group 268" transform="translate(10.554 4.746)">
      <g id="Group_267" data-name="Group 267">
        <path id="Path_288" data-name="Path 288" d="M128.093,54a8.082,8.082,0,0,0-5.547,13.963.87.87,0,0,0,.094.088,8.071,8.071,0,0,0,10.906,0,.879.879,0,0,0,.094-.088A8.082,8.082,0,0,0,128.093,54Zm0,14.414a6.294,6.294,0,0,1-3.822-1.289,4.394,4.394,0,0,1,7.645,0A6.294,6.294,0,0,1,128.093,68.414Zm-1.406-6.68v-.571a1.406,1.406,0,0,1,2.812,0v.571a1.406,1.406,0,0,1-2.812,0Zm6.5,4.1a6.1,6.1,0,0,0-2.59-2.171,3.147,3.147,0,0,0,.661-1.932v-.571a3.164,3.164,0,0,0-6.328,0v.571a3.148,3.148,0,0,0,.661,1.932A6.1,6.1,0,0,0,123,65.837a6.328,6.328,0,1,1,10.185,0Z" transform="translate(-120.007 -54)" fill="#0a73fe"/>
      </g>
    </g>
    <g id="Group_270" data-name="Group 270" transform="translate(17.761 38.496)">
      <g id="Group_269" data-name="Group 269">
        <path id="Path_289" data-name="Path 289" d="M207.632,438h-4.746a.879.879,0,0,0,0,1.758h4.746a.879.879,0,1,0,0-1.758Z" transform="translate(-202.007 -438)" fill="#0a73fe"/>
      </g>
    </g>
    <g id="Group_272" data-name="Group 272" transform="translate(10.027 33.574)">
      <g id="Group_271" data-name="Group 271">
        <path id="Path_290" data-name="Path 290" d="M127.366,382h-12.48a.879.879,0,0,0,0,1.758h12.48a.879.879,0,1,0,0-1.758Z" transform="translate(-114.007 -382)" fill="#0a73fe"/>
      </g>
    </g>
    <g id="Group_274" data-name="Group 274" transform="translate(10.027 28.652)">
      <g id="Group_273" data-name="Group 273">
        <path id="Path_291" data-name="Path 291" d="M127.366,326h-12.48a.879.879,0,0,0,0,1.758h12.48a.879.879,0,1,0,0-1.758Z" transform="translate(-114.007 -326)" fill="#0a73fe"/>
      </g>
    </g>
    <g id="Group_276" data-name="Group 276" transform="translate(6.272 23.73)">
      <g id="Group_275" data-name="Group 275">
        <path id="Path_292" data-name="Path 292" d="M72.788,270.258a.878.878,0,1,0,.258.621A.886.886,0,0,0,72.788,270.258Z" transform="translate(-71.287 -270)" fill="#0a73fe"/>
      </g>
    </g>
    <g id="Group_278" data-name="Group 278" transform="translate(6.272 28.652)">
      <g id="Group_277" data-name="Group 277">
        <path id="Path_293" data-name="Path 293" d="M72.788,326.258a.878.878,0,1,0,.258.621A.887.887,0,0,0,72.788,326.258Z" transform="translate(-71.287 -326)" fill="#0a73fe"/>
      </g>
    </g>
    <g id="Group_280" data-name="Group 280" transform="translate(6.272 33.574)">
      <g id="Group_279" data-name="Group 279">
        <path id="Path_294" data-name="Path 294" d="M72.788,382.258a.878.878,0,1,0,.258.621A.887.887,0,0,0,72.788,382.258Z" transform="translate(-71.287 -382)" fill="#0a73fe"/>
      </g>
    </g>
    <g id="Group_282" data-name="Group 282" transform="translate(10.027 23.73)">
      <g id="Group_281" data-name="Group 281">
        <path id="Path_295" data-name="Path 295" d="M127.366,270h-12.48a.879.879,0,0,0,0,1.758h12.48a.879.879,0,1,0,0-1.758Z" transform="translate(-114.007 -270)" fill="#0a73fe"/>
      </g>
    </g>
    <g id="Group_284" data-name="Group 284" transform="translate(26.162 10.958)">
      <g id="Group_283" data-name="Group 283">
        <path id="Path_296" data-name="Path 296" d="M314.588,125.171a3.691,3.691,0,0,0-5.043,1.351l-11.06,19.157a.88.88,0,0,0-.112.342l-.779,6.974a.879.879,0,0,0,1.395.805l5.65-4.161a.877.877,0,0,0,.24-.268l11.06-19.157A3.7,3.7,0,0,0,314.588,125.171Zm-15.024,26.022.407-3.642,2.544,1.469Zm4.232-3.463-3.349-1.934,8.876-15.373,3.349,1.934Zm10.621-18.4-.866,1.5L310.2,128.9l.866-1.5a1.934,1.934,0,0,1,3.349,1.934Z" transform="translate(-297.589 -124.675)" fill="#0a73fe"/>
      </g>
    </g>
  </g>
</svg>
