<svg xmlns="http://www.w3.org/2000/svg" width="15.923" height="16.411" viewBox="0 0 15.923 16.411">
  <path id="Path_164" data-name="Path 164" d="M11.752,18.412H8.766a.821.821,0,0,1-.8-.645L7.63,16.221a6.566,6.566,0,0,1-1.26-.728l-1.507.48A.821.821,0,0,1,3.9,15.6l-1.5-2.586A.826.826,0,0,1,2.565,12l1.169-1.067a6.647,6.647,0,0,1,0-1.454L2.565,8.414A.826.826,0,0,1,2.406,7.4L3.9,4.809a.821.821,0,0,1,.96-.372l1.507.48a6.627,6.627,0,0,1,.624-.41A6.735,6.735,0,0,1,7.63,4.19l.335-1.544A.821.821,0,0,1,8.766,2h2.987a.821.821,0,0,1,.8.646l.338,1.545a6.559,6.559,0,0,1,.672.343,6.245,6.245,0,0,1,.588.385l1.508-.48a.821.821,0,0,1,.959.372L18.112,7.4a.825.825,0,0,1-.158,1.017L16.784,9.481a6.647,6.647,0,0,1,0,1.454L17.954,12a.825.825,0,0,1,.158,1.017l-1.493,2.587a.821.821,0,0,1-.959.372l-1.508-.48a6.548,6.548,0,0,1-.594.39,6.715,6.715,0,0,1-.665.337l-.339,1.542A.821.821,0,0,1,11.752,18.412Zm-1.5-11.488a3.282,3.282,0,1,0,3.282,3.282A3.282,3.282,0,0,0,10.256,6.923Z" transform="translate(-2.297 -2)" fill="#888"/>
</svg>
