<svg xmlns="http://www.w3.org/2000/svg" width="50.087" height="45" viewBox="0 0 50.087 45">
  <g id="speech-bubble" transform="translate(0 0)">
    <path id="Path_278" data-name="Path 278" d="M246.978,100a.978.978,0,1,0,.978.978A.979.979,0,0,0,246.978,100Zm0,0" transform="translate(-221.935 -90.218)" fill="#0a73fe"/>
    <path id="Path_279" data-name="Path 279" d="M80.978,261.957a.978.978,0,1,0-.978-.978A.979.979,0,0,0,80.978,261.957Zm0,0" transform="translate(-72.174 -234.566)" fill="#0a73fe"/>
    <path id="Path_280" data-name="Path 280" d="M32.87,0C24.063,0,16.834,6.072,16.275,13.72,7.888,14.141,0,20.189,0,28.369a13.67,13.67,0,0,0,3.815,9.355A5.949,5.949,0,0,1,2.243,43.33.978.978,0,0,0,2.935,45a10.791,10.791,0,0,0,7.476-3.022,22.293,22.293,0,0,0,6.806,1.065c8.806,0,16.034-6.071,16.594-13.717a22,22,0,0,0,5.864-1.044A10.791,10.791,0,0,0,47.152,31.3a.978.978,0,0,0,.692-1.67,5.949,5.949,0,0,1-1.572-5.605,13.67,13.67,0,0,0,3.815-9.355C50.087,6.174,41.592,0,32.87,0ZM17.217,41.087a19.776,19.776,0,0,1-6.7-1.154.978.978,0,0,0-1.084.248,8.827,8.827,0,0,1-4.39,2.605,7.911,7.911,0,0,0,.6-5.823A.976.976,0,0,0,5.4,36.55a11.756,11.756,0,0,1-3.442-8.181c0-6.894,6.988-12.717,15.261-12.717,7.812,0,14.674,5.432,14.674,12.717,0,7.013-6.583,12.717-14.674,12.717ZM44.689,22.854a.981.981,0,0,0-.239.413,7.911,7.911,0,0,0,.6,5.823,8.824,8.824,0,0,1-4.39-2.605.979.979,0,0,0-1.084-.248,19.271,19.271,0,0,1-5.763,1.13,14,14,0,0,0-5.286-9.758h12.76a.978.978,0,1,0,0-1.957H25.517a18.245,18.245,0,0,0-7.28-1.928C18.8,7.154,25.147,1.956,32.87,1.956c8.272,0,15.261,5.824,15.261,12.717a11.756,11.756,0,0,1-3.442,8.181Zm0,0" fill="#0a73fe"/>
    <path id="Path_281" data-name="Path 281" d="M133.3,260H120.978a.978.978,0,1,0,0,1.957H133.3a.978.978,0,1,0,0-1.957Zm0,0" transform="translate(-108.261 -234.566)" fill="#0a73fe"/>
    <path id="Path_282" data-name="Path 282" d="M97.217,320H80.978a.978.978,0,1,0,0,1.957H97.217a.978.978,0,1,0,0-1.957Zm0,0" transform="translate(-72.174 -288.696)" fill="#0a73fe"/>
    <path id="Path_283" data-name="Path 283" d="M299.3,100H286.978a.978.978,0,1,0,0,1.957H299.3a.978.978,0,1,0,0-1.957Zm0,0" transform="translate(-258.022 -90.218)" fill="#0a73fe"/>
  </g>
</svg>
