<?xml version="1.0" encoding="UTF-8"?>
<svg xmlns="http://www.w3.org/2000/svg" id="_30-Stopwatch" data-name="30-Stopwatch" viewBox="0 0 64 64" width="512" height="512"><path d="M36,17A20,20,0,1,0,56,37,20.02229,20.02229,0,0,0,36,17ZM51,38h2.94934A17.90005,17.90005,0,0,1,49.3952,48.981l-2.08148-2.08148a1,1,0,0,0-1.41424,1.41424L47.981,50.3952A17.90005,17.90005,0,0,1,37,54.94934V52a1,1,0,0,0-2,0v2.94934A17.90005,17.90005,0,0,1,24.019,50.3952l2.08148-2.08148a1,1,0,0,0-1.41424-1.41424L22.6048,48.981A17.90005,17.90005,0,0,1,18.05066,38H21a1,1,0,0,0,0-2H18.05066A17.90022,17.90022,0,0,1,22.6048,25.019l2.08148,2.08148a1,1,0,0,0,1.41424-1.41418L24.019,23.6048A17.90005,17.90005,0,0,1,35,19.05066V22a1,1,0,0,0,2,0V19.05066A17.90005,17.90005,0,0,1,47.981,23.6048l-2.08148,2.08148a1,1,0,0,0,1.41424,1.41418L49.3952,25.019A17.90022,17.90022,0,0,1,53.94934,36H51a1,1,0,0,0,0,2Zm-8-5H38.4541l3.43164-6.53516A1.00047,1.00047,0,0,0,41,25H34a1.00083,1.00083,0,0,0-.92285.61523l-5,12A.99986.99986,0,0,0,29,39h4.65625L31.042,47.71289a1.0001,1.0001,0,0,0,1.74414.90527l11-14A.99992.99992,0,0,0,43,33ZM34.47461,43.23242l1.4834-4.94531A.99984.99984,0,0,0,35,37H30.5l4.167-10H39.3457l-3.43164,6.53516A1.00048,1.00048,0,0,0,36.7998,35h4.14258ZM2,25a.99943.99943,0,0,1,1-1h8a1,1,0,0,1,0,2H3A.99943.99943,0,0,1,2,25Zm7,5a1,1,0,0,1,0,2H6a1,1,0,0,1,0-2Zm3,19a.99943.99943,0,0,1-1,1H3a1,1,0,0,1,0-2h8A.99943.99943,0,0,1,12,49Zm-2-6a.99943.99943,0,0,1-1,1H6a1,1,0,0,1,0-2H9A.99943.99943,0,0,1,10,43ZM2,37a.99943.99943,0,0,1,1-1H9a1,1,0,0,1,0,2H3A.99943.99943,0,0,1,2,37ZM56.58594,21a2.00163,2.00163,0,0,0,2.82812,0L61,19.41406a2.001,2.001,0,0,0,0-2.82812L56.41406,12a2.0028,2.0028,0,0,0-2.82812,0L52,13.58594a2.001,2.001,0,0,0,0,2.82812l.08594.08594-1.4773,1.47729A23.8877,23.8877,0,0,0,40,13.33972V11a3.00328,3.00328,0,0,0,3-3V6a3.00328,3.00328,0,0,0-3-3H32a3.00328,3.00328,0,0,0-3,3V8a3.00328,3.00328,0,0,0,3,3v2.33972a23.8877,23.8877,0,0,0-10.60864,4.63757L19.91406,16.5,20,16.41406a2.001,2.001,0,0,0,0-2.82812L18.41406,12a2.0028,2.0028,0,0,0-2.82812,0L11,16.58594a2.001,2.001,0,0,0,0,2.82812L12.58594,21a2.00163,2.00163,0,0,0,2.82812,0L15.5,20.91406l1.47729,1.4773a24,24,0,1,0,38.04542,0L56.5,20.91406ZM55,13.41406,59.58594,18,58,19.58594l-4.58691-4.585ZM31,8V6a1.00067,1.00067,0,0,1,1-1h8a1.00067,1.00067,0,0,1,1,1V8a1.00067,1.00067,0,0,1-1,1H32A1.00067,1.00067,0,0,1,31,8Zm3,3h4v2.08978C37.33978,13.035,36.67407,13,36,13s-1.33978.035-2,.08978ZM12.41406,18,17,13.41406,18.58594,15,14,19.58594Zm4.5,1.5L18.5,17.91406l1.3493,1.34931q-.82927.75576-1.58593,1.58593ZM36,59A22,22,0,1,1,58,37,22.02489,22.02489,0,0,1,36,59ZM53.73663,20.8493q-.75576-.82927-1.58593-1.58593L53.5,17.91406,55.08594,19.5Z"/></svg>
