<svg xmlns="http://www.w3.org/2000/svg" width="38.063" height="22.063" viewBox="0 0 38.063 22.063">
  <g id="students-cap" transform="translate(0 -166.422)">
    <path id="Path_165" data-name="Path 165" d="M171.056,405.811,159.7,402.316v5.837c0,2.7,5.085,4.886,11.358,4.886s11.359-2.188,11.359-4.886c0-.021-.007-.043-.007-.063v-5.773Z" transform="translate(-152.024 -224.554)" fill="#0a73fe"/>
    <path id="Path_166" data-name="Path 166" d="M0,173.744l4.056,1.451.346-.74,1.49-.127.212.221-1.279.3-.186.552s-2.888,6.038-2.464,8.992a3.725,3.725,0,0,0,3.6,0l.479-8.076v-.672l2.682-.605-.189.467-2,.65.925.33,11.355,3.495,11.354-3.495,7.677-2.746-19.031-7.322Z" transform="translate(0 0)" fill="#0a73fe"/>
  </g>
</svg>
