<svg xmlns="http://www.w3.org/2000/svg" width="31.411" height="27" viewBox="0 0 31.411 27">
  <g id="suitcase" transform="translate(0 -35.944)">
    <g id="Group_294" data-name="Group 294" transform="translate(14.093 50.95)">
      <g id="Group_293" data-name="Group 293">
        <path id="Path_157" data-name="Path 157" d="M232.634,280.54h-2.593a.316.316,0,0,0-.316.316v2.6a.316.316,0,0,0,.316.315h2.593a.316.316,0,0,0,.316-.315v-2.6A.316.316,0,0,0,232.634,280.54Z" transform="translate(-229.726 -280.54)" fill="#0a73fe"/>
      </g>
    </g>
    <g id="Group_296" data-name="Group 296" transform="translate(0 35.944)">
      <g id="Group_295" data-name="Group 295">
        <path id="Path_158" data-name="Path 158" d="M26.565,40.3H21.217V38.064a2.133,2.133,0,0,0-2.141-2.12H12.334a2.133,2.133,0,0,0-2.141,2.12V40.3H4.846A4.851,4.851,0,0,0,0,45.148v2.9a2.491,2.491,0,0,0,1.687,1.877l10.56,2.581V51.265A2.164,2.164,0,0,1,14.409,49.1H17a2.164,2.164,0,0,1,2.162,2.162V52.51l10.56-2.581a2.491,2.491,0,0,0,1.687-1.877v-2.9A4.851,4.851,0,0,0,26.565,40.3Zm-7.194,0H12.039V38.064a.279.279,0,0,1,.295-.274h6.742a.279.279,0,0,1,.295.274V40.3Z" transform="translate(0 -35.944)" fill="#0a73fe"/>
      </g>
    </g>
    <g id="Group_298" data-name="Group 298" transform="translate(0 51.14)">
      <g id="Group_297" data-name="Group 297">
        <path id="Path_159" data-name="Path 159" d="M30.244,284.2l-.053.015-11.1,2.713a2.165,2.165,0,0,1-2.088,1.6H14.409a2.165,2.165,0,0,1-2.088-1.6l-11.1-2.713-.053-.015A4.376,4.376,0,0,1,0,283.643v7.846a3.963,3.963,0,0,0,3.958,3.958H27.452a3.963,3.963,0,0,0,3.958-3.958v-7.846A4.376,4.376,0,0,1,30.244,284.2Z" transform="translate(0 -283.643)" fill="#0a73fe"/>
      </g>
    </g>
  </g>
</svg>
