<svg xmlns="http://www.w3.org/2000/svg" width="16" height="13.754" viewBox="0 0 16 13.754">
  <g id="suitcase" transform="translate(0 -35.944)">
    <g id="Group_294" data-name="Group 294" transform="translate(7.179 43.588)">
      <g id="Group_293" data-name="Group 293">
        <path id="Path_157" data-name="Path 157" d="M231.207,280.54h-1.321a.161.161,0,0,0-.161.161v1.327a.161.161,0,0,0,.161.161h1.321a.161.161,0,0,0,.161-.161V280.7A.161.161,0,0,0,231.207,280.54Z" transform="translate(-229.726 -280.54)" fill="#888"/>
      </g>
    </g>
    <g id="Group_296" data-name="Group 296" transform="translate(0 35.944)">
      <g id="Group_295" data-name="Group 295">
        <path id="Path_158" data-name="Path 158" d="M13.532,38.164H10.808v-1.14a1.087,1.087,0,0,0-1.091-1.08H6.283a1.087,1.087,0,0,0-1.09,1.08v1.14H2.468A2.471,2.471,0,0,0,0,40.632v1.479a1.269,1.269,0,0,0,.86.956l5.379,1.315v-.634a1.1,1.1,0,0,1,1.1-1.1H8.66a1.1,1.1,0,0,1,1.1,1.1v.634l5.379-1.315a1.269,1.269,0,0,0,.86-.956V40.632A2.471,2.471,0,0,0,13.532,38.164Zm-3.664,0H6.133v-1.14a.142.142,0,0,1,.15-.14H9.717a.142.142,0,0,1,.15.14v1.14Z" transform="translate(0 -35.944)" fill="#888"/>
      </g>
    </g>
    <g id="Group_298" data-name="Group 298" transform="translate(0 43.685)">
      <g id="Group_297" data-name="Group 297">
        <path id="Path_159" data-name="Path 159" d="M15.406,283.928l-.027.007-5.655,1.382a1.1,1.1,0,0,1-1.064.817H7.34a1.1,1.1,0,0,1-1.064-.817L.622,283.936l-.027-.007A2.23,2.23,0,0,1,0,283.643v4a2.019,2.019,0,0,0,2.016,2.016H13.984A2.019,2.019,0,0,0,16,287.64v-4A2.23,2.23,0,0,1,15.406,283.928Z" transform="translate(0 -283.643)" fill="#888"/>
      </g>
    </g>
  </g>
</svg>
