<?xml version="1.0" encoding="UTF-8"?><svg id="Warstwa_2" xmlns="http://www.w3.org/2000/svg" viewBox="0 0 960 560"><defs><style>.cls-1{fill:#fff;}.cls-2{fill:#e20c17;}</style></defs><g id="Layer_1"><g><path class="cls-2" d="M484.81,283.97c-.25,0-.45-.2-.45-.45s.2-.45,.45-.45,.45,.2,.45,.45-.2,.45-.45,.45Z"/><g><path class="cls-1" d="M484.73,283.69c-.09,0-.17-.08-.17-.17s.08-.17,.17-.17c.05,0,.09,.02,.12,.05-.04-.06-.1-.09-.17-.09-.12,0-.21,.09-.21,.21s.09,.21,.21,.21c.07,0,.14-.04,.17-.09-.03,.03-.07,.05-.12,.05Z"/><polygon class="cls-1" points="485.04 283.59 484.97 283.56 484.92 283.63 484.92 283.55 484.85 283.53 484.92 283.5 484.92 283.43 484.97 283.49 485.04 283.46 484.99 283.53 485.04 283.59"/></g></g></g></svg>