<svg xmlns="http://www.w3.org/2000/svg" width="18" height="18" viewBox="0 0 18 18">
  <path id="Path_175" data-name="Path 175" d="M11,20a8.91,8.91,0,0,1-3.928-.9,9.047,9.047,0,0,1-1.282-.76l-.123-.09A9.08,9.08,0,0,1,3,15.126,8.9,8.9,0,0,1,2,11a9,9,0,0,1,18,0,8.9,8.9,0,0,1-1,4.124,8.947,8.947,0,0,1-4,3.933l-.072.036A8.91,8.91,0,0,1,11,20Zm0-4.5a3.591,3.591,0,0,0-3.2,1.95,7.212,7.212,0,0,0,6.4,0v0A3.588,3.588,0,0,0,11,15.5Zm0-1.8a5.413,5.413,0,0,1,4.706,2.75l.014-.012.013-.011-.015.014-.009.007a7.2,7.2,0,1,0-9.414,0A5.414,5.414,0,0,1,11,13.7Zm0-.9a3.6,3.6,0,1,1,2.546-1.054A3.6,3.6,0,0,1,11,12.8Zm0-5.4a1.8,1.8,0,1,0,1.8,1.8A1.8,1.8,0,0,0,11,7.4Z" transform="translate(-2 -2)" fill="#fff"/>
</svg>
