<svg id="whatsapp" xmlns="http://www.w3.org/2000/svg" width="21.628" height="21.628" viewBox="0 0 21.628 21.628">
  <path id="Path_134" data-name="Path 134" d="M10.817,0h-.005A10.807,10.807,0,0,0,2.059,17.153L.711,21.17l4.157-1.329A10.812,10.812,0,1,0,10.817,0Z" transform="translate(0)" fill="#4caf50"/>
  <path id="Path_135" data-name="Path 135" d="M119.842,127.413a3.052,3.052,0,0,1-2.122,1.526c-.565.12-1.3.216-3.788-.814a13.547,13.547,0,0,1-5.384-4.756,6.176,6.176,0,0,1-1.284-3.262,3.452,3.452,0,0,1,1.106-2.632,1.571,1.571,0,0,1,1.106-.388c.134,0,.254.007.362.012.318.014.477.032.687.534.261.629.9,2.18.972,2.34a.644.644,0,0,1,.046.585,1.869,1.869,0,0,1-.35.5c-.16.184-.311.324-.47.522-.146.172-.311.356-.127.673a9.6,9.6,0,0,0,1.755,2.18,7.951,7.951,0,0,0,2.536,1.564.684.684,0,0,0,.762-.12,13.08,13.08,0,0,0,.845-1.119.6.6,0,0,1,.776-.235c.292.1,1.837.865,2.155,1.023s.527.235.6.369A2.693,2.693,0,0,1,119.842,127.413Z" transform="translate(-102.733 -112.142)" fill="#fafafa"/>
</svg>
