<svg id="world-wide-web" xmlns="http://www.w3.org/2000/svg" width="20.501" height="20.501" viewBox="0 0 20.501 20.501">
  <g id="Group_272" data-name="Group 272" transform="translate(0 0)">
    <path id="Path_136" data-name="Path 136" d="M17.5,3A10.251,10.251,0,1,0,3,17.5,10.251,10.251,0,1,0,17.5,3Zm-13.646.85A9.026,9.026,0,0,1,6.965,1.815a8.451,8.451,0,0,0-.858,1.32,11.809,11.809,0,0,0-.79,1.884,18.517,18.517,0,0,1-2.1-.464A9.227,9.227,0,0,1,3.853,3.853ZM2.492,5.589a18.573,18.573,0,0,0,2.5.593A17.453,17.453,0,0,0,4.55,9.649H1.223A8.967,8.967,0,0,1,2.492,5.589ZM2.426,14.8a8.969,8.969,0,0,1-1.2-3.949H4.552a17.435,17.435,0,0,0,.435,3.371A19.489,19.489,0,0,0,2.426,14.8Zm1.426,1.848a9.206,9.206,0,0,1-.714-.8,19.442,19.442,0,0,1,2.171-.458,11.829,11.829,0,0,0,.8,1.908,8.313,8.313,0,0,0,.941,1.422A9.024,9.024,0,0,1,3.853,16.648Zm5.8,2.5a4.482,4.482,0,0,1-2.48-2.412,10.456,10.456,0,0,1-.647-1.505c.99-.109,2.044-.173,3.127-.189Zm0-5.309a33.88,33.88,0,0,0-3.467.221,16.129,16.129,0,0,1-.427-3.2H9.649v2.984Zm0-4.186h-3.9a16.153,16.153,0,0,1,.434-3.291A33.386,33.386,0,0,0,9.649,6.6Zm0-4.251c-1.087-.022-2.138-.093-3.122-.208A10.455,10.455,0,0,1,7.169,3.7a4.482,4.482,0,0,1,2.48-2.412V5.4Zm8.4.255a8.969,8.969,0,0,1,1.231,4H15.952a17.474,17.474,0,0,0-.434-3.429A19.639,19.639,0,0,0,18.047,5.653Zm-1.4-1.8a9.214,9.214,0,0,1,.677.757,19.627,19.627,0,0,1-2.13.445,11.837,11.837,0,0,0-.8-1.92,8.451,8.451,0,0,0-.858-1.32A9.026,9.026,0,0,1,16.648,3.853Zm-5.8,7h3.894a16.108,16.108,0,0,1-.433,3.228,33.418,33.418,0,0,0-3.462-.24Zm0-1.2V6.6a33.917,33.917,0,0,0,3.47-.219,16.17,16.17,0,0,1,.427,3.264Zm0-8.362h0A4.482,4.482,0,0,1,13.332,3.7a10.47,10.47,0,0,1,.65,1.515c-.992.109-2.046.173-3.13.187Zm0,17.857v-4.1c1.086.021,2.136.092,3.119.206a10.448,10.448,0,0,1-.639,1.484A4.482,4.482,0,0,1,10.852,19.144Zm5.8-2.5a9.022,9.022,0,0,1-3.2,2.069,8.312,8.312,0,0,0,.941-1.422,11.8,11.8,0,0,0,.788-1.878,18.5,18.5,0,0,1,2.143.475A9.22,9.22,0,0,1,16.648,16.648Zm1.394-1.793a18.573,18.573,0,0,0-2.536-.6,17.422,17.422,0,0,0,.442-3.4h3.329A8.969,8.969,0,0,1,18.043,14.856Z" transform="translate(0 0)" fill="#888"/>
  </g>
</svg>
