<svg xmlns="http://www.w3.org/2000/svg" width="20.501" height="14.351" viewBox="0 0 20.501 14.351">
  <path id="Path_131" data-name="Path 131" d="M12.249,19.351h-.02c-.064,0-6.417-.012-8.02-.448A2.56,2.56,0,0,1,2.4,17.1a27.135,27.135,0,0,1-.416-4.926,27.291,27.291,0,0,1,.427-4.934A2.626,2.626,0,0,1,4.222,5.41C5.781,5,11.959,5,12.221,5h.022c.065,0,6.434.012,8.021.448a2.566,2.566,0,0,1,1.8,1.806,25.845,25.845,0,0,1,.417,4.948,27.211,27.211,0,0,1-.428,4.927,2.571,2.571,0,0,1-1.81,1.806C18.69,19.347,12.511,19.351,12.249,19.351ZM10.2,9.1,10.2,15.247l5.338-3.073Z" transform="translate(-1.985 -5)" fill="#888"/>
</svg>
